HIERARCHY
ROOT ui
{
	 OFFSET 0 0 0
	 CHANNELS 3 XPosition YPosition Z Position
	 EndSite
	 {
	 OFFSET 0 -1 0
	 }
}
ROOT li
{
	 OFFSET 0 0 0
	 CHANNELS 3 XPosition YPosition Z Position
	 EndSite
	 {
	 OFFSET 0 -1 0
	 }
}
ROOT ul
{
	 OFFSET 0 0 0
	 CHANNELS 3 XPosition YPosition Z Position
	 EndSite
	 {
	 OFFSET 0 -1 0
	 }
}
ROOT ll
{
	 OFFSET 0 0 0
	 CHANNELS 3 XPosition YPosition Z Position
	 EndSite
	 {
	 OFFSET 0 -1 0
	 }
}
ROOT tt
{
	 OFFSET 0 0 0
	 CHANNELS 3 XPosition YPosition Z Position
	 EndSite
	 {
	 OFFSET 0 -1 0
	 }
}
ROOT tb
{
	 OFFSET 0 0 0
	 CHANNELS 3 XPosition YPosition Z Position
	 EndSite
	 {
	 OFFSET 0 -1 0
	 }
}
ROOT td
{
	 OFFSET 0 0 0
	 CHANNELS 3 XPosition YPosition Z Position
	 EndSite
	 {
	 OFFSET 0 -1 0
	 }
}
ROOT v
{
	 OFFSET 0 0 0
	 CHANNELS 3 XPosition YPosition Z Position
	 EndSite
	 {
	 OFFSET 0 -1 0
	 }
}
ROOT bn
{
	 OFFSET 0 0 0
	 CHANNELS 3 XPosition YPosition Z Position
	 EndSite
	 {
	 OFFSET 0 -1 0
	 }
}
MOTION
Frames: 16
Frame Time: 0.002
0.010314957618713379	-8.534500002861023E-4	0		0.47821823120117185	-2.379664794921875	0		-1.0858648681640626	-0.0032706758975982668	0		-0.81660986328125	-2.233876708984375	0		1.49731103515625	-0.5117710876464844	0		3.22542529296875	-0.144443359375	0		4.58705224609375	-0.11628067016601562	0		5.558189453125	0.1961821746826172	0		-0.18922317504882813	5.95211328125	0		
-0.06112684631347656	-0.014236974716186523	0		0.42794577026367187	-2.373418701171875	0		-1.0830748291015626	-0.0027786738872528074	0		-0.7681275024414063	-2.24414111328125	0		1.5059715576171875	-0.517537841796875	0		3.22820654296875	-0.14422320556640625	0		4.59570556640625	-0.12424197387695313	0		5.55584765625	0.18733689880371093	0		-0.18605763244628906	5.95254833984375	0		
0.018708251953125	-0.01606544303894043	0		0.457625	-2.375468994140625	0		-1.0802127685546874	-0.0022991909980773924	0		-0.8254127197265625	-2.2437109375	0		1.5118658447265625	-0.513267822265625	0		3.226189697265625	-0.1359311981201172	0		4.60954248046875	-0.1252921905517578	0		5.5679951171875	0.20425714111328125	0		-0.2169189910888672	5.94752294921875	0		
-0.05506317138671875	0.005578004837036133	0		0.4395294189453125	-2.36575830078125	0		-1.06920556640625	0.0050313611030578615	0		-0.75857666015625	-2.2393037109375	0		1.517795166015625	-0.5090077514648438	0		3.2339462890625	-0.143802490234375	0		4.595578125	-0.11588990783691407	0		5.5667724609375	0.19639454650878907	0		-0.04722672653198242	5.974236328125	0		
0.021755537033081054	7.59302020072937E-4	0		0.4641797790527344	-2.372756591796875	0		-1.0744248046875	-0.0013981599807739258	0		-0.8297440795898438	-2.2346767578125	0		1.50679345703125	-0.5004794616699219	0		3.236831787109375	-0.14359248352050782	0		4.6094638671875	-0.11593152618408203	0		5.57867529296875	0.19633372497558593	0		-0.04401500701904297	5.97462109375	0		
-0.052355968475341796	0.003381326913833618	0		0.43893426513671874	-2.371955078125	0		-1.07156298828125	-9.816120266914368E-4	0		-0.766978515625	-2.234251220703125	0		1.5065670166015626	-0.5041343078613282	0		3.2188203125	-0.13503614807128905	0		4.6181728515625	-0.12487796020507813	0		5.57254736328125	0.19658555603027345	0		-0.05703438568115234	5.965251953125	0		
0.02030852127075195	-0.005411755084991455	0		0.4416429748535156	-2.37162353515625	0		-1.0687584228515625	-5.890349745750427E-4	0		-0.8361727905273437	-2.227693359375	0		1.509351318359375	-0.5038459777832032	0		3.227504150390625	-0.141914306640625	0		4.609990234375	-0.12353557586669922	0		5.57534375	0.19570960998535156	0		-0.16920223999023437	5.9534873046875	0		
-0.036974651336669925	-0.005096964836120606	0		0.4463343200683594	-2.3683408203125	0		-1.0660330810546874	-2.202640026807785E-4	0		-0.774795654296875	-2.244298095703125	0		1.5228607177734375	-0.5157461547851563	0		3.258253662109375	-0.1401552276611328	0		4.6247587890625	-0.1205625991821289	0		5.59218896484375	0.20261549377441407	0		-0.1652852325439453	5.95280859375	0		
0.05463966369628906	-0.006244758129119873	0		0.4549856262207031	-2.362140625	0		-1.0393934326171874	7.314710021018982E-4	0		-0.8020863647460937	-2.23446923828125	0		1.53465087890625	-0.5046290588378907	0		3.24296044921875	-0.1346471405029297	0		4.6094658203125	-0.11509660339355468	0		5.58485546875	0.204920654296875	0		-0.1796209716796875	5.94440771484375	0		
-0.03864174652099609	0.007628267765045166	0		0.47727716064453124	-2.37118505859375	0		-1.0249031982421875	-1.4070500433444977E-4	0		-0.7884938354492188	-2.2253330078125	0		1.5202296142578124	-0.4990965576171875	0		3.213485595703125	-0.13291490173339843	0		4.6229697265625	-0.11511004638671875	0		5.58323876953125	0.1971279602050781	0		-0.17694688415527343	5.94470849609375	0		
-0.02455306053161621	-0.009285698890686036	0		0.4515894775390625	-2.370455322265625	0		-1.0585279541015624	7.599920034408569E-4	0		-0.7803966064453125	-2.23812890625	0		1.5195213623046875	-0.5028056945800782	0		3.2377177734375	-0.14107977294921875	0		4.61433837890625	-0.11476879119873047	0		5.59046484375	0.188181640625	0		-0.1886008758544922	5.93422607421875	0		
-0.04115338897705078	0.0022937710285186766	0		0.480708984375	-2.3726455078125	0		-1.056312255859375	0.0010532360076904296	0		-0.7521416015625	-2.232272705078125	0		1.5217244873046876	-0.5025771789550781	0		3.254911376953125	-0.14214187622070312	0		4.62241845703125	-0.12271590423583985	0		5.592685546875	0.1883079833984375	0		-0.1862362060546875	5.93449755859375	0		
-0.03505291748046875	0.005483135223388672	0		0.45778802490234377	-2.36698974609375	0		-1.0542608642578124	0.0013341350555419922	0		-0.8101535034179688	-2.23200732421875	0		1.5345635986328126	-0.5145399780273437	0		3.252092041015625	-0.13388551330566406	0		4.626796875	-0.102610595703125	0		5.58987451171875	0.19650679016113282	0		-0.16887547302246095	5.9445078125	0		
-0.015351651191711425	-0.005567370891571045	0		0.4875958557128906	-2.36821923828125	0		-1.048309326171875	0.0055381498336791995	0		-0.7574283447265625	-2.2385859375	0		1.5348179931640624	-0.49130209350585935	0		3.258841552734375	-0.14180104064941407	0		4.63733154296875	-0.12362396240234375	0		5.59178125	0.19761602783203125	0		-0.18200883483886718	5.9350068359375	0		
-0.028391054153442383	0.008917030334472656	0		0.46128643798828123	-2.366529541015625	0		-1.0506485595703126	0.0018672109842300414	0		-0.778519775390625	-2.223951171875	0		1.53041748046875	-0.4980009460449219	0		3.260564697265625	-0.14164138793945313	0		4.62220654296875	-0.11421646118164062	0		5.5935126953125	0.19772015380859376	0		-0.18014105224609375	5.935248046875	0		
0.04711154556274414	0.0039200220108032225	0		0.5136714477539063	-2.3751552734375	0		-1.0130744018554687	0.001524027943611145	0		-0.7810740966796875	-2.2286357421875	0		1.531985107421875	-0.497805419921875	0		3.2531748046875	-0.1393362579345703	0		4.63478125	-0.11427430725097656	0		5.59509619140625	0.19782273864746094	0		-0.04606252288818359	5.95628759765625	0		
